<svg xmlns="http://www.w3.org/2000/svg" width="256" height="256"><path fill-opacity=".016" d="M0 128.004v128.004l128.25-.254 128.25-.254.254-127.75L257.008 0H0v128.004m.485.496c0 70.4.119 99.053.265 63.672.146-35.38.146-92.98 0-128C.604 29.153.485 58.1.485 128.5" fill="#212121" fill-rule="evenodd"/><path fill-opacity=".271" d="M109.692 52.377c-10.146 2.834-15.635 11.335-15.67 24.268L94 84.79l-15.75.372c-15.262.36-15.919.464-21.214 3.355-6.199 3.384-11.467 9.658-13.052 15.543-.701 2.601-.969 17.546-.777 43.208.284 38.026.359 39.355 2.455 43.232 2.549 4.715 7.452 9.539 12.338 12.138 3.312 1.762 7.063 1.862 70 1.862 66.323 0 66.511-.006 70.553-2.17 5.337-2.857 10.251-7.882 12.547-12.83 1.708-3.68 1.858-7.149 1.878-43.384.015-27.353-.337-40.583-1.154-43.309-1.583-5.283-7.794-12.124-13.585-14.962-4.213-2.064-6.477-2.362-20.399-2.686l-15.659-.365-.341-9.724c-.301-8.601-.655-10.199-3.068-13.842-1.5-2.264-4.875-5.38-7.5-6.923-4.632-2.723-5.241-2.812-20.772-3.038-10.992-.16-17.505.188-20.808 1.11m3.558 17.285c-.842.34-1.25 2.924-1.25 7.921V85h33v-6.066c0-10.082.223-9.947-16.285-9.855-7.818.043-14.777.306-15.465.583m-49.615 35.411L61 107.145v75.506l2.314 2.175L65.629 187h62.685c61.083 0 62.736-.05 64.661-1.975 1.086-1.086 2.229-2.998 2.541-4.25.312-1.251.436-18.177.276-37.613l-.292-35.337-2.806-2.413-2.806-2.412h-61.809c-61.017 0-61.843.027-64.444 2.073m55.761 11.285c-13.542 4.438-22.667 18.259-21.053 31.887 1.219 10.295 7.271 18.863 16.935 23.977 6.32 3.344 19.339 3.24 26.093-.21 17.926-9.155 22.057-32.065 8.554-47.444-6.59-7.507-20.918-11.36-30.529-8.21m2.367 18.15c-5.302 2.988-7.286 10.646-4.269 16.481 2.193 4.241 5.33 6.011 10.652 6.011 15.436 0 16.568-22.451 1.193-23.656-3.136-.245-5.802.164-7.576 1.164" fill="#212121" fill-rule="evenodd"/><path fill-opacity=".563" d="M106.429 53.893c-4.882 2.217-9.722 7.804-11.288 13.029C94.514 69.018 94 74.129 94 78.282v7.549l-16.75.34c-13.472.274-17.365.676-19.894 2.055-4.362 2.38-9.024 7.241-11.645 12.14-2.177 4.07-2.211 4.757-2.211 44.634v40.5l3 5.423c3.184 5.755 8.3 10.138 14.329 12.276 2.869 1.017 17.757 1.301 68.171 1.301 71.338 0 67.573.326 75.382-6.53 2.055-1.804 4.722-5.123 5.927-7.375 2.132-3.985 2.199-5.151 2.485-43.455.324-43.395.131-45.136-5.8-52.331-1.645-1.996-5.33-4.794-8.189-6.219-4.933-2.458-6.002-2.59-21.001-2.59H162v-8.532c0-12.648-3.61-19.456-12.5-23.572-3.412-1.58-6.573-1.852-21.5-1.852-14.889 0-18.107.276-21.571 1.849M112.2 70.2c-.714.714-1.2 4.156-1.2 8.5V86h34v-7.3c0-4.344-.486-7.786-1.2-8.5-1.675-1.675-29.925-1.675-31.6 0m-49.611 35.877L60 109.153v35.473c0 39.995.07 40.438 6.756 42.391 2.581.755 22.481 1 64.081.789l60.337-.306 2.413-2.806 2.413-2.806v-73.979l-2.455-2.454-2.454-2.455H65.178l-2.589 3.077m59.558 9.987c-23.162 4.611-31.459 34.146-14.143 50.343 6.542 6.119 10.924 7.867 19.996 7.975 9.089.108 14.783-2.165 21-8.382 6.192-6.192 8.483-11.909 8.414-21-.042-5.646-.613-8.655-2.309-12.172-5.931-12.303-19.837-19.376-32.958-16.764m2.472 16.97c-9.403 2.816-11.976 14.417-4.737 21.353 5.82 5.576 15.565 3.834 19.42-3.472 3.51-6.651.42-14.374-7.02-17.544-3.601-1.534-3.655-1.536-7.663-.337" fill="#212121" fill-rule="evenodd"/><path fill-opacity=".975" d="M109.764 52.996c-4.768 1.435-9.587 4.982-11.964 8.804-1.871 3.009-2.393 5.567-2.8 13.7l-.5 10-16.5.521c-14.452.457-17.014.794-20.643 2.716-5.227 2.769-10.69 9.093-12.196 14.121-.798 2.662-1.154 16.201-1.139 43.258.02 36.038.178 39.727 1.856 43.423 2.312 5.087 9.794 11.747 14.929 13.285 6.024 1.805 130.33 1.575 135.445-.251 5.754-2.053 10.005-5.802 13.274-11.703l2.974-5.37.305-37.803c.347-42.85.01-45.576-6.527-52.811-6.706-7.422-9.581-8.316-28.028-8.711L162 85.828v-6.971c0-10.366-1.636-15.547-6.418-20.321-2.317-2.314-5.862-4.608-8.198-5.306-4.645-1.388-33.198-1.566-37.62-.234m3.459 16.561c-1.959 1.371-2.223 2.442-2.223 9V86h34v-7.965c0-6.851-.27-8.109-1.934-9-1.064-.569-7.714-1.035-14.778-1.035-10.005 0-13.334.344-15.065 1.557M65.357 102.98C60.049 105.151 60 105.541 60 145.299v36.855l2.923 2.923L65.846 188h61.643c63.311 0 64.267-.056 67.229-3.913.907-1.181 1.227-11.202 1.25-39.163l.032-37.575-2.58-2.425-2.58-2.424-61.67-.198c-33.919-.109-62.634.196-63.813.678m53.346 14.462c-9.226 3.291-16.368 10.888-18.829 20.027-1.602 5.949-.688 15.348 1.999 20.559 5.29 10.257 12.754 15.108 24.277 15.775 9.817.568 15.355-1.325 21.964-7.507 12.566-11.753 12.229-31.782-.726-43.185-2.474-2.179-6.579-4.67-9.122-5.536-5.607-1.91-14.412-1.97-19.563-.133m3.359 16.385c-12.466 6.686-6.853 25.086 7.281 23.867 6.487-.56 10.662-4.563 11.378-10.907 1.224-10.863-9.143-18.063-18.659-12.96" fill="#212121" fill-rule="evenodd"/></svg>